<svg width="1269" height="1167" viewBox="0 0 1269 1167" fill="none" xmlns="http://www.w3.org/2000/svg">
<g filter="url(#filter0_d_30_294)">
<path d="M93.0398 638.607L273.812 795.795C299.058 817.747 333.297 830.079 368.998 830.079H464.164C499.865 830.079 534.104 842.412 559.35 864.364L776.139 1052.87C801.384 1074.83 835.621 1087.16 871.321 1087.16H1394.79C1455.32 1087.16 1504.39 1044.49 1504.39 991.852C1504.39 979.335 1501.55 966.941 1496.04 955.377C1490.54 943.813 1482.46 933.306 1472.28 924.456L1355.99 823.327C1339.79 809.241 1339.79 786.404 1355.98 772.316C1359.83 768.966 1364.41 766.309 1369.44 764.496C1374.47 762.683 1379.87 761.75 1385.31 761.751C1408.22 761.751 1426.79 745.601 1426.79 725.68C1426.79 716.113 1422.42 706.937 1414.64 700.173L1151.69 471.517C1126.44 449.564 1092.2 437.232 1056.5 437.231H740.898C705.196 437.231 670.957 424.899 645.712 402.946L598.255 361.68C573.009 339.728 538.771 327.396 503.07 327.396H186.512C143.745 327.396 109.076 357.545 109.076 394.736C109.076 403.58 111.079 412.337 114.971 420.507C118.863 428.677 124.567 436.101 131.759 442.354L170.476 476.023C191.862 494.618 191.863 524.769 170.48 543.366C165.396 547.788 159.359 551.296 152.715 553.689C146.071 556.082 138.95 557.314 131.759 557.314C101.517 557.314 77 578.633 77 604.932C76.9999 611.186 78.4164 617.378 81.1685 623.156C83.9206 628.934 87.9545 634.184 93.0398 638.605V638.607Z" fill="black"/>
</g>
<path d="M93.0398 638.607L273.812 795.795C299.058 817.747 333.297 830.079 368.998 830.079H464.164C499.865 830.079 534.104 842.412 559.35 864.364L776.139 1052.87C801.384 1074.83 835.621 1087.16 871.321 1087.16H1394.79C1455.32 1087.16 1504.39 1044.49 1504.39 991.852C1504.39 979.335 1501.55 966.941 1496.04 955.377C1490.54 943.813 1482.46 933.306 1472.28 924.456L1355.99 823.327C1339.79 809.241 1339.79 786.404 1355.98 772.316C1359.83 768.966 1364.41 766.309 1369.44 764.496C1374.47 762.683 1379.87 761.75 1385.31 761.751C1408.22 761.751 1426.79 745.601 1426.79 725.68C1426.79 716.113 1422.42 706.937 1414.64 700.173L1151.69 471.517C1126.44 449.564 1092.2 437.232 1056.5 437.231H740.898C705.196 437.231 670.957 424.899 645.712 402.946L598.255 361.68C573.009 339.728 538.771 327.396 503.07 327.396H186.512C143.745 327.396 109.076 357.545 109.076 394.736C109.076 403.58 111.079 412.337 114.971 420.507C118.863 428.677 124.567 436.101 131.759 442.354L170.476 476.023C191.862 494.618 191.863 524.769 170.48 543.366C165.396 547.788 159.359 551.296 152.715 553.689C146.071 556.082 138.95 557.314 131.759 557.314C101.517 557.314 77 578.633 77 604.932C76.9999 611.186 78.4164 617.378 81.1685 623.156C83.9206 628.934 87.9545 634.184 93.0398 638.605V638.607Z" fill="#1E3A8A"/>
<path fill-rule="evenodd" clip-rule="evenodd" d="M278.813 279.211L459.586 436.399C484.831 458.351 519.07 470.684 554.772 470.683H649.937C685.639 470.684 719.878 483.016 745.123 504.969L961.913 693.478C987.157 715.43 1021.39 727.763 1057.09 727.765H1580.56C1641.09 727.765 1690.16 685.094 1690.16 632.456C1690.16 619.939 1687.33 607.545 1681.82 595.981C1676.31 584.418 1668.24 573.911 1658.06 565.06L1541.76 463.931C1525.56 449.845 1525.56 427.008 1541.76 412.92C1545.61 409.571 1550.18 406.913 1555.21 405.101C1560.25 403.288 1565.64 402.355 1571.09 402.355C1593.99 402.355 1612.57 386.205 1612.57 366.284C1612.57 356.717 1608.2 347.542 1600.42 340.778L1337.46 112.121C1312.21 90.1686 1277.97 77.8359 1242.27 77.8358H926.671C890.97 77.8357 856.731 65.5029 831.485 43.5504L784.028 2.28424C758.783 -19.6676 724.544 -31.9999 688.843 -32H372.286C329.519 -32 294.849 -1.85056 294.849 35.3405C294.849 44.1841 296.852 52.9411 300.744 61.1115C304.636 69.2818 310.341 76.7055 317.532 82.9586L356.25 116.627C377.635 135.222 377.637 165.374 356.254 183.97C351.169 188.392 345.132 191.9 338.488 194.293C331.844 196.687 324.724 197.919 317.532 197.918C287.29 197.918 262.773 219.237 262.773 245.537C262.773 251.79 264.19 257.983 266.942 263.761C269.694 269.538 273.728 274.788 278.813 279.21V279.211Z" fill="url(#paint0_linear_30_294)"/>
<defs>
<filter id="filter0_d_30_294" x="0" y="252.396" width="1581.39" height="913.765" filterUnits="userSpaceOnUse" color-interpolation-filters="sRGB">
<feFlood flood-opacity="0" result="BackgroundImageFix"/>
<feColorMatrix in="SourceAlpha" type="matrix" values="0 0 0 0 0 0 0 0 0 0 0 0 0 0 0 0 0 0 127 0" result="hardAlpha"/>
<feOffset dy="2"/>
<feGaussianBlur stdDeviation="38.5"/>
<feColorMatrix type="matrix" values="0 0 0 0 0 0 0 0 0 0 0 0 0 0 0 0 0 0 0.0240111 0"/>
<feBlend mode="normal" in2="BackgroundImageFix" result="effect1_dropShadow_30_294"/>
<feBlend mode="normal" in="SourceGraphic" in2="effect1_dropShadow_30_294" result="shape"/>
</filter>
<linearGradient id="paint0_linear_30_294" x1="262.773" y1="27431.2" x2="120686" y2="90112.6" gradientUnits="userSpaceOnUse">
<stop stop-color="#4169E1"/>
<stop offset="1" stop-color="#87CEFA"/>
</linearGradient>
</defs>
</svg>
