<svg version="1.1" id="Layer_1" xmlns="http://www.w3.org/2000/svg" xmlns:xlink="http://www.w3.org/1999/xlink" x="0px" y="0px"
	 width="100%" viewBox="0 0 1000 421" enable-background="new 0 0 1000 421" xml:space="preserve">
<path fill="#4169E1" opacity="1.000000" stroke="none" 
	d="
M192.852249,223.358795 
	C190.671509,224.528412 188.623062,225.884216 186.562439,225.902985 
	C168.250748,226.069778 149.936874,226.000000 131.312134,226.000000 
	C131.312134,236.911804 131.312134,247.649155 131.312134,258.767822 
	C132.603271,258.839935 134.035706,258.988647 135.468216,258.989685 
	C156.463791,259.004700 177.459351,258.995575 198.454926,259.002777 
	C204.532883,259.004852 204.990707,259.469147 204.997574,265.562439 
	C205.007156,274.060638 204.866272,282.561981 205.064072,291.055573 
	C205.146225,294.584229 204.317123,296.091980 200.386566,296.076935 
	C165.727722,295.944214 131.067993,295.954193 96.409012,296.067566 
	C92.762474,296.079498 91.941032,294.698059 91.945679,291.352539 
	C92.022125,236.197601 92.027687,181.042496 91.936325,125.887627 
	C91.930367,122.298515 92.810448,120.910812 96.668846,120.925179 
	C131.161087,121.053574 165.654160,121.045242 200.146515,120.933228 
	C203.777344,120.921440 205.180252,121.879318 205.076172,125.704895 
	C204.836121,134.529831 204.875198,143.368286 205.053787,152.196152 
	C205.140259,156.470612 203.462753,158.075714 199.194672,158.053879 
	C176.703308,157.938858 154.211044,158.000000 131.359589,158.000000 
	C131.359589,168.146179 131.359589,178.219223 131.359589,188.777664 
	C132.492126,188.841019 133.913208,188.988312 135.334427,188.989639 
	C152.330826,189.005646 169.327240,188.995895 186.323654,189.002182 
	C192.484619,189.004471 192.990784,189.486786 192.996033,195.431168 
	C193.004120,204.595749 192.985916,213.760361 192.852249,223.358795 
z"/>
<path fill="#4169E1" opacity="1.000000" stroke="none" 
	d="
M907.001099,209.991791 
	C898.975159,227.576111 890.984802,244.770126 883.004395,261.968750 
	C869.884216,290.244232 856.759521,318.517548 843.662598,346.803741 
	C840.559387,353.505920 837.516785,360.237061 834.530823,366.992218 
	C833.267761,369.849548 831.482361,371.177338 828.115479,371.083221 
	C819.294678,370.836609 810.462341,371.006470 801.634644,370.997772 
	C795.667725,370.991882 794.154236,368.349762 796.932434,362.404541 
	C801.089172,353.509430 805.430603,344.700806 809.621582,335.821472 
	C817.100769,319.975708 824.559692,304.120087 831.911133,288.214966 
	C832.501282,286.938080 832.755310,285.003723 832.223145,283.787140 
	C826.368103,270.402100 820.311035,257.105591 814.338806,243.771622 
	C808.433105,230.586197 802.495361,217.414444 796.705811,204.178040 
	C794.129822,198.288620 795.759338,196.002701 802.142639,196.000702 
	C810.970337,195.997940 819.805359,196.207520 828.622314,195.900177 
	C832.263855,195.773254 833.824158,197.491653 834.997253,200.364578 
	C840.574219,214.022400 846.165771,227.674286 851.760437,241.324860 
	C851.992798,241.891876 852.308838,242.424591 853.016479,243.826004 
	C854.530762,240.404678 855.803467,237.601227 857.017944,234.772766 
	C862.016907,223.130554 867.143250,211.539246 871.880005,199.791031 
	C873.015076,196.975861 874.399353,195.944717 877.245239,195.969864 
	C886.405457,196.050873 895.566711,195.988083 904.727600,196.004181 
	C910.814880,196.014893 912.025574,197.686142 909.957947,203.517914 
	C909.210571,205.626190 908.026184,207.579514 907.001099,209.991791 
z"/>
<path fill="#4169E1" opacity="1.000000" stroke="none" 
	d="
M724.980713,293.894104 
	C724.611633,291.716064 724.046021,289.984344 724.039917,288.250610 
	C723.975342,269.928162 724.000000,251.605362 724.000000,233.282654 
	C724.000000,231.651794 724.000000,230.020935 724.000000,227.999908 
	C722.182068,227.999908 720.713135,227.847473 719.286743,228.029297 
	C715.443176,228.519318 714.180054,225.982162 714.082825,223.066513 
	C713.838745,215.745575 713.864807,208.407333 714.063721,201.083679 
	C714.152710,197.807205 715.661865,195.429779 719.635254,195.972672 
	C720.912720,196.147202 722.234070,196.000015 724.000000,196.000015 
	C724.000000,187.948502 723.748779,180.153946 724.056519,172.381516 
	C724.567566,159.473877 726.803589,147.093140 734.903687,136.316956 
	C743.487183,124.897705 755.040344,119.302238 768.861816,118.062492 
	C780.566956,117.012573 791.930542,118.548019 802.524414,124.144333 
	C808.317566,127.204590 809.488831,130.243790 806.531128,135.962860 
	C803.499268,141.825241 800.229553,147.565155 797.227295,153.442093 
	C795.331177,157.153839 792.916138,157.282013 789.289307,155.849777 
	C785.004272,154.157654 780.361694,152.132812 775.949768,152.296143 
	C769.629211,152.530121 764.620544,158.703354 764.081543,165.687286 
	C763.320068,175.552338 763.076660,185.457367 762.581055,196.000000 
	C770.418457,196.000000 777.680725,196.166458 784.930542,195.938904 
	C789.433105,195.797562 791.213867,197.508469 791.060303,202.038315 
	C790.828979,208.859848 790.889709,215.697464 791.041443,222.523468 
	C791.132263,226.607956 789.351318,228.129227 785.370300,228.044296 
	C778.078064,227.888733 770.780151,227.999985 763.000000,227.999985 
	C763.000000,236.749298 763.000000,245.188004 763.000000,253.626724 
	C763.000000,266.119476 762.893005,278.613739 763.067505,291.104034 
	C763.117615,294.686218 762.218262,296.173523 758.340149,296.078156 
	C748.684937,295.840729 739.018921,296.068512 729.359985,295.925842 
	C727.913818,295.904480 726.482300,294.892944 724.980713,293.894104 
z"/>
<path fill="#4169E1" opacity="1.000000" stroke="none" 
	d="
M488.591431,193.170288 
	C497.818939,193.682159 507.098480,192.785934 515.315491,195.326477 
	C531.953430,200.470596 541.574463,212.963058 544.983887,230.031860 
	C548.984497,250.060379 546.245239,270.334503 546.945496,290.485321 
	C547.067749,294.003845 545.548828,296.199738 541.304443,296.077026 
	C532.482727,295.822021 523.644897,295.851166 514.821350,296.071136 
	C511.143433,296.162842 509.875397,295.042999 509.924713,291.264862 
	C510.111725,276.940979 510.298431,262.604095 509.863281,248.290985 
	C509.670563,241.952240 509.372925,235.354218 503.962860,230.330078 
	C498.596527,225.346558 492.649200,224.876511 486.293304,227.075623 
	C480.118256,229.212143 475.399414,233.417374 475.110931,240.247253 
	C474.432922,256.299652 474.285217,272.375702 474.021240,288.443756 
	C473.897125,295.998199 473.999878,295.999939 466.505554,296.000000 
	C458.842621,296.000061 451.177643,295.893829 443.517639,296.043091 
	C439.460114,296.122131 437.945068,294.416718 437.956055,290.411377 
	C438.037262,260.759399 438.036102,231.107040 437.958313,201.455063 
	C437.947571,197.360291 439.685394,195.712326 443.651764,195.979111 
	C445.475952,196.101807 447.315338,196.012741 449.147644,195.997925 
	C461.709167,195.896408 458.739929,195.487427 463.434998,206.943604 
	C470.775848,200.687180 478.612000,195.410599 488.591431,193.170288 
z"/>
<path fill="#4169E1" opacity="1.000000" stroke="none" 
	d="
M419.030060,227.984100 
	C421.492462,235.215775 421.804321,242.233231 419.703735,249.021439 
	C419.233093,250.542252 415.448853,251.841370 413.171814,251.871750 
	C395.676697,252.105042 378.177032,252.000000 360.678802,252.000000 
	C359.195740,252.000000 357.712708,252.000000 356.195007,252.000000 
	C357.573303,264.188690 368.931335,270.710876 381.697693,266.614136 
	C385.302795,265.457245 388.677185,263.420227 391.950714,261.444427 
	C394.386230,259.974396 396.514221,259.835144 398.347809,261.933594 
	C402.649200,266.856293 407.022003,271.747833 410.902039,276.994965 
	C412.990021,279.818573 412.698456,282.942596 409.817261,285.786438 
	C401.071075,294.419373 390.596619,298.790588 378.403046,298.964447 
	C369.766205,299.087646 361.306305,299.159973 352.880554,295.633575 
	C336.420349,288.744476 326.124268,276.493561 322.275635,259.802826 
	C317.703644,239.975052 321.695984,221.433563 336.891266,206.728989 
	C346.307098,197.617218 357.640839,193.099472 371.103577,192.815613 
	C386.531555,192.490311 399.545410,197.176758 409.180664,209.017914 
	C413.510162,214.338638 415.793091,221.324661 419.030060,227.984100 
M382.080475,226.558884 
	C379.805115,221.993317 375.669006,219.911041 371.030914,220.177307 
	C365.167206,220.513931 360.566010,225.670197 359.362762,231.850891 
	C367.505981,231.850891 375.637054,231.850891 384.335724,231.850891 
	C383.695801,230.063187 383.168945,228.591263 382.080475,226.558884 
z"/>
<path fill="#4169E1" opacity="1.000000" stroke="none" 
	d="
M634.000000,217.866028 
	C633.999512,219.846069 634.127441,221.359467 633.972412,222.843277 
	C633.631104,226.109482 632.437317,228.265106 628.435913,228.073807 
	C622.477966,227.789001 616.496338,227.999969 610.013245,227.999969 
	C610.013245,238.041290 609.658813,247.830734 610.141174,257.578766 
	C610.448853,263.795258 614.201233,266.129822 620.008240,264.970612 
	C631.274414,262.721619 631.266602,262.723846 634.407532,273.843262 
	C635.498657,277.705933 636.672729,281.545258 637.747742,285.412262 
	C639.162781,290.502472 637.961609,292.861786 633.159119,294.385925 
	C621.517700,298.080414 609.606384,299.812286 597.392273,298.982666 
	C587.090454,298.282928 577.260986,289.535889 575.140137,278.390839 
	C574.044739,272.634552 574.130432,266.617523 574.044617,260.713013 
	C573.887756,249.925186 574.000000,239.133438 574.000000,228.390808 
	C563.000000,227.298706 563.000000,227.298706 563.000000,216.094025 
	C563.000000,211.094116 563.223022,206.081009 562.928528,201.098511 
	C562.697937,197.196304 563.895203,195.441452 567.967285,195.961578 
	C569.756104,196.190063 571.598328,196.000015 574.000000,196.000015 
	C574.000000,187.060165 573.992126,178.289993 574.002747,169.519852 
	C574.010071,163.471558 574.479431,163.009323 580.589905,163.002258 
	C588.589783,162.993011 596.601807,163.265182 604.584778,162.898010 
	C609.186401,162.686356 610.222168,164.408813 610.086914,168.649979 
	C609.801331,177.604050 610.000000,186.573578 610.000000,196.000000 
	C616.108887,196.000000 621.905518,196.258194 627.667358,195.921463 
	C632.621704,195.631927 634.035522,198.103012 634.007568,202.386322 
	C633.974976,207.386002 634.000000,212.386078 634.000000,217.866028 
z"/>
<path fill="#4169E1" opacity="1.000000" stroke="none" 
	d="
M311.614319,196.001007 
	C315.576721,197.733276 316.152130,200.908096 313.692047,205.732742 
	C306.011353,220.795883 298.227478,235.806732 290.601715,250.897522 
	C283.625397,264.703094 276.933838,278.654449 269.799774,292.376770 
	C268.401489,295.066406 267.782318,298.911255 263.103882,299.128479 
	C259.027496,299.317780 256.748138,297.911957 254.994629,294.367798 
	C240.275330,264.617126 225.452515,234.917679 210.660645,205.202911 
	C207.303482,198.458832 208.830048,196.001801 216.382584,196.000351 
	C224.542252,195.998795 232.716965,196.294586 240.855347,195.878311 
	C245.056259,195.663452 246.993393,197.241913 248.486099,200.872635 
	C252.511917,210.664795 256.815430,220.342911 261.030304,230.056915 
	C261.194153,230.434570 261.580322,230.715759 262.175842,231.403061 
	C266.880493,221.252945 271.656281,211.512054 275.885223,201.539246 
	C277.500214,197.730804 279.225830,195.747681 283.678223,195.903687 
	C292.825989,196.224197 301.992859,196.000076 311.614319,196.001007 
z"/>
<path fill="#4169E1" opacity="1.000000" stroke="none" 
	d="
M656.000000,277.997742 
	C656.000000,252.020035 656.075867,226.541458 655.919983,201.064270 
	C655.896057,197.147949 656.954163,195.792725 660.988953,195.913651 
	C670.139587,196.187881 679.306702,196.127335 688.461487,195.935150 
	C691.948975,195.861923 693.076477,197.002777 693.063599,200.514053 
	C692.952942,230.820984 692.955872,261.128632 693.060669,291.435577 
	C693.072571,294.881287 692.064392,296.142120 688.511780,296.067688 
	C679.024109,295.868896 669.528381,295.918304 660.038330,296.047363 
	C657.015320,296.088470 655.837402,295.038635 655.955444,291.984009 
	C656.128845,287.494568 656.000061,282.993469 656.000000,277.997742 
z"/>
<path fill="#4169E1" opacity="1.000000" stroke="none" 
	d="
M690.326904,159.168762 
	C678.649597,171.443817 658.648254,166.647385 654.567078,151.287415 
	C651.478027,139.661407 660.753174,125.832787 672.871094,125.756149 
	C686.303528,125.671196 693.565125,133.348801 694.663696,144.371704 
	C695.128662,149.037354 692.065491,154.054642 690.326904,159.168762 
z"/>
</svg>